<?xml version="1.0" encoding="utf-8"?>
<!-- Generator: Adobe Illustrator 28.0.0, SVG Export Plug-In . SVG Version: 6.00 Build 0)  -->
<svg version="1.1" id="Layer_1" xmlns="http://www.w3.org/2000/svg" xmlns:xlink="http://www.w3.org/1999/xlink" x="0px" y="0px"
	 viewBox="0 0 24 24" style="enable-background:new 0 0 24 24;" xml:space="preserve">
<style type="text/css">
	.st0{fill:none;stroke:#FFFFFF;stroke-miterlimit:10;}
	.st1{fill:#FFFFFF;}
</style>
<g>
	<circle class="st0" cx="12" cy="5.7" r="4"/>
	<path class="st0" d="M12,11.7c-6.1,0-8,4-8,4v2h16v-2C20,15.7,18.1,11.7,12,11.7z"/>
</g>
<g>
	<path class="st1" d="M3.7,19.1h1.7v2.4H3.7C3.7,21.5,3.7,19.1,3.7,19.1z M4.2,21.1h0.7v-1.5H4.2V21.1z M6.9,20.5H6.4v1.8H5.9v-3.5
		h0.5v1.3h0.5C6.9,20.1,6.9,20.5,6.9,20.5z"/>
	<path class="st1" d="M9,20.3c0,0.8-0.4,1.3-0.9,1.3s-0.9-0.5-0.9-1.3S7.5,19,8.1,19S9,19.5,9,20.3z M7.6,20.3
		c0,0.5,0.2,0.8,0.4,0.8c0.3,0,0.4-0.3,0.4-0.8s-0.2-0.8-0.4-0.8S7.6,19.8,7.6,20.3z M10,18.8v3.5H9.5v-3.5H10z"/>
	<path class="st1" d="M11.9,21.1c0.1,0,0.2,0,0.3,0l0,0.4c-0.6,0.1-1.3,0.1-1.7,0.1l-0.1-0.4h0.3v-1.5h-0.2v-0.4h1.6v0.4h-0.2
		L11.9,21.1L11.9,21.1z M11.2,21.1c0.1,0,0.2,0,0.3,0v-1.5h-0.3V21.1z M12.4,18.9h0.5v3.3h-0.5v-1.6H12v-0.4h0.3V18.9z M13.5,18.8
		v3.5h-0.5v-3.5H13.5z"/>
	<path class="st1" d="M15.9,20.3c0,0.8-0.4,1.3-0.9,1.3S14,21.1,14,20.3s0.4-1.3,0.9-1.3S15.9,19.5,15.9,20.3z M14.5,20.3
		c0,0.5,0.2,0.8,0.4,0.8s0.4-0.3,0.4-0.8s-0.2-0.8-0.4-0.8S14.5,19.8,14.5,20.3z M16.9,18.8v3.5h-0.5v-3.5H16.9z"/>
	<path class="st1" d="M18.7,19.7c0,0.6,0.3,1.2,0.9,1.4l-0.3,0.4c-0.4-0.2-0.7-0.5-0.9-1c-0.2,0.5-0.4,0.9-0.9,1l-0.3-0.4
		c0.6-0.3,0.9-0.9,0.9-1.5v-0.2h-0.7v-0.4h2v0.4h-0.7L18.7,19.7L18.7,19.7z M20.3,18.8v3.5h-0.5v-3.5C19.8,18.8,20.3,18.8,20.3,18.8
		z"/>
</g>
</svg>
